<svg width="74" height="74" viewBox="0 0 74 74" fill="none" xmlns="http://www.w3.org/2000/svg">
<path d="M52.5107 59.0007L37.0007 49.6507L21.4907 59.0007L25.5973 41.364L11.9207 29.5207L29.9607 27.9807L37.0007 11.334L44.0407 27.944L62.0807 29.484L48.404 41.3273L52.5107 59.0007ZM37.0007 0.333984C16.724 0.333984 0.333984 16.834 0.333984 37.0007C0.333984 46.7253 4.19707 56.0516 11.0734 62.9279C14.4782 66.3327 18.5203 69.0336 22.9689 70.8762C27.4175 72.7189 32.1855 73.6673 37.0007 73.6673C46.7253 73.6673 56.0516 69.8042 62.9279 62.9279C69.8042 56.0516 73.6673 46.7253 73.6673 37.0007C73.6673 32.1855 72.7189 27.4175 70.8762 22.9689C69.0336 18.5203 66.3327 14.4782 62.9279 11.0734C59.5231 7.66859 55.481 4.96774 51.0324 3.12507C46.5838 1.2824 41.8158 0.333984 37.0007 0.333984Z" fill="#F4F4F4"/>
</svg>
