<svg width="76" height="76" viewBox="0 0 76 76" fill="none" xmlns="http://www.w3.org/2000/svg">
<path d="M68.25 68C68.25 72.1625 64.9125 75.5 60.75 75.5C56.5875 75.5 53.25 72.125 53.25 68C53.25 63.8375 56.5875 60.5 60.75 60.5C64.9125 60.5 68.25 63.875 68.25 68ZM23.25 60.5C19.0875 60.5 15.75 63.8375 15.75 68C15.75 72.125 19.0875 75.5 23.25 75.5C27.4125 75.5 30.75 72.1625 30.75 68C30.75 63.8375 27.4125 60.5 23.25 60.5ZM24 47.8625L23.8875 48.3125C23.8875 48.8375 24.3 49.25 24.825 49.25H68.25V56.75H23.25C19.0875 56.75 15.75 53.375 15.75 49.25C15.75 47.9375 16.0875 46.7 16.65 45.65L21.75 36.4625L8.25 8H0.75V0.5H13.0125L16.5375 8H72C74.0625 8 75.75 9.6875 75.75 11.75C75.75 12.3875 75.5625 13.025 75.3 13.625L61.875 37.8875C60.6 40.175 58.125 41.75 55.3125 41.75H27.375L24 47.8625ZM28.875 34.25H34.5V26.75H25.35L28.875 34.25ZM38.25 26.75V34.25H49.5V26.75H38.25ZM49.5 23V15.5H38.25V23H49.5ZM61.1625 26.75H53.25V34.25H57L61.1625 26.75ZM67.425 15.5H53.25V23H63.2625L67.425 15.5ZM20.025 15.5L23.55 23H34.5V15.5H20.025Z" fill="#6230AD"/>
</svg>
