<svg width="152" height="151" viewBox="0 0 152 151" fill="none" xmlns="http://www.w3.org/2000/svg">
<path d="M68.4 97.565H83.6V112.575H68.4V97.565ZM68.4 37.525H83.6V82.555H68.4V37.525ZM76 0C33.972 0 0 33.7725 0 75.05C0 94.9545 8.00712 114.044 22.2599 128.118C29.3171 135.087 37.6953 140.616 46.9161 144.387C56.1368 148.159 66.0195 150.1 76 150.1C96.1565 150.1 115.487 142.193 129.74 128.118C143.993 114.044 152 94.9545 152 75.05C152 65.1943 150.034 55.4351 146.215 46.3296C142.395 37.2241 136.797 28.9507 129.74 21.9816C122.683 15.0126 114.305 9.48446 105.084 5.71284C95.8632 1.94123 85.9805 0 76 0ZM76 135.09C59.8748 135.09 44.4101 128.764 33.0079 117.505C21.6057 106.245 15.2 90.9736 15.2 75.05C15.2 59.1264 21.6057 43.855 33.0079 32.5953C44.4101 21.3356 59.8748 15.01 76 15.01C92.1252 15.01 107.59 21.3356 118.992 32.5953C130.394 43.855 136.8 59.1264 136.8 75.05C136.8 90.9736 130.394 106.245 118.992 117.505C107.59 128.764 92.1252 135.09 76 135.09Z" fill="#A70F0F"/>
</svg>
