<svg width="117" height="111" viewBox="0 0 117 111" fill="none" xmlns="http://www.w3.org/2000/svg">
<path d="M77.0529 54.7534C81.0643 50.7713 83.5714 45.2407 83.5714 39.1016C83.5714 32.9626 81.0643 27.432 77.0529 23.4499L84.9086 15.6517C90.9814 21.6801 94.7143 29.9761 94.7143 39.1016C94.7143 48.2272 90.9814 56.5232 84.9086 62.5516L77.0529 54.7534ZM72.4286 39.1016C72.4286 36.168 71.2546 33.3545 69.1649 31.2801C67.0752 29.2057 64.241 28.0404 61.2857 28.0404C57.9429 28.0404 54.99 29.5336 52.9286 31.8012L68.64 47.3976C70.9243 45.3513 72.4286 42.42 72.4286 39.1016ZM92.82 70.4051L100.676 78.2033C110.76 68.1928 117 54.3662 117 39.1016C117 23.8371 110.76 10.0105 100.676 0L92.82 7.79821C100.899 15.7623 105.857 26.8789 105.857 39.1016C105.857 51.3797 100.899 62.441 92.82 70.4051ZM117 95.4036V88.8774H110.426L117 95.4036ZM107.361 99.9387L111.429 103.976L104.353 111L93.21 99.9387H78C78 101.406 77.413 102.812 76.3682 103.849C75.3233 104.887 73.9062 105.469 72.4286 105.469H50.1429C48.6652 105.469 47.2481 104.887 46.2033 103.849C45.1584 102.812 44.5714 101.406 44.5714 99.9387H5.57143V88.8774H44.5714C44.5714 87.4106 45.1584 86.0039 46.2033 84.9667C47.2481 83.9295 48.6652 83.3468 50.1429 83.3468H55.7143V62.7175L40.8943 48.006C42.0086 50.5501 43.5686 52.9283 45.5186 54.7534L37.6629 62.5516C31.59 56.5232 27.8571 48.2272 27.8571 39.1016C27.8571 37.8296 27.8571 36.5576 28.08 35.2855L18.7757 26.0493C17.4943 30.1973 16.7143 34.5665 16.7143 39.1016C16.7143 51.3797 21.6729 62.441 29.7514 70.4051L21.8957 78.2033C11.8114 68.1928 5.57143 54.3662 5.57143 39.1016C5.57143 31.4141 7.18714 24.0583 10.0843 17.4215L0 7.41106L7.13143 0.387145L15.0429 8.24066L23.1214 16.2601L31.3671 24.4454L39.9471 33.0179L51.7029 44.6323L55.7143 48.559L96.2186 88.8774H96.2743L107.417 99.9387H107.361ZM82.0671 88.8774L66.8571 73.7788V83.3468H72.4286C73.9062 83.3468 75.3233 83.9295 76.3682 84.9667C77.413 86.0039 78 87.4106 78 88.8774H82.0671Z" fill="#6230AD"/>
</svg>
