<svg width="19" height="27" viewBox="0 0 19 27" fill="none" xmlns="http://www.w3.org/2000/svg">
<path d="M9.596 12.8357C8.74063 12.8357 7.9203 12.4959 7.31547 11.8911C6.71063 11.2862 6.37084 10.4659 6.37084 9.61053C6.37084 8.75516 6.71063 7.93483 7.31547 7.32999C7.9203 6.72516 8.74063 6.38537 9.596 6.38537C10.4514 6.38537 11.2717 6.72516 11.8765 7.32999C12.4814 7.93483 12.8212 8.75516 12.8212 9.61053C12.8212 10.0341 12.7377 10.4534 12.5757 10.8447C12.4136 11.236 12.176 11.5916 11.8765 11.8911C11.577 12.1905 11.2215 12.4281 10.8302 12.5902C10.4389 12.7523 10.0195 12.8357 9.596 12.8357ZM9.596 0.580078C7.20098 0.580078 4.90405 1.5315 3.21051 3.22504C1.51697 4.91857 0.565552 7.2155 0.565552 9.61053C0.565552 16.3834 9.596 26.3814 9.596 26.3814C9.596 26.3814 18.6264 16.3834 18.6264 9.61053C18.6264 7.2155 17.675 4.91857 15.9815 3.22504C14.288 1.5315 11.991 0.580078 9.596 0.580078Z" fill="#F4F4F4"/>
</svg>
