<svg width="30" height="30" viewBox="0 0 30 30" fill="none" xmlns="http://www.w3.org/2000/svg">
<path d="M0.503906 27.9918C0.503906 28.7034 1.09693 29.3096 1.82174 29.3096H18.9535C19.6915 29.3096 20.2713 28.7034 20.2713 27.9918V26.674H0.503906V27.9918ZM10.3876 10.86C5.44577 10.86 0.503906 13.4957 0.503906 18.767H20.2713C20.2713 13.4957 15.3295 10.86 10.3876 10.86ZM3.95662 16.1313C5.41941 14.0887 8.52949 13.4957 10.3876 13.4957C12.2458 13.4957 15.3558 14.0887 16.8186 16.1313H3.95662ZM0.503906 21.4027H20.2713V24.0383H0.503906V21.4027ZM22.907 5.5887V0.317383H20.2713V5.5887H13.6822L13.9853 8.22436H26.5838L24.7388 26.674H22.907V29.3096H25.1737C26.2806 29.3096 27.19 28.453 27.3217 27.3724L29.4962 5.5887H22.907Z" fill="#F4F4F4"/>
</svg>
